<?xml version="1.0" encoding="UTF-8"?>
<svg width="14px" height="14px" viewBox="0 0 14 14" version="1.1" xmlns="http://www.w3.org/2000/svg" xmlns:xlink="http://www.w3.org/1999/xlink">
    <!-- Generator: Sketch 51.2 (57519) - http://www.bohemiancoding.com/sketch -->
    <title>IconFrame</title>
    <desc>Created with Sketch.</desc>
    <defs></defs>
    <g id="CurrentImplementation" stroke="none" stroke-width="1" fill="none" fill-rule="evenodd">
        <g id="Close" transform="translate(-17.000000, -17.000000)">
            <g id="IconFrame" transform="translate(12.000000, 12.000000)">
                <rect fill-rule="nonzero" x="0" y="0" width="24" height="24"></rect>
                <path d="M18.743768,6.49398481 C19.0854627,6.15229006 19.0854627,5.5979658 18.743768,5.25627106 C18.4020733,4.91457631 17.8481865,4.91457631 17.5064918,5.25627106 L12,10.7627628 L6.49394574,5.25627106 C6.152251,4.91501382 5.59836425,4.91501382 5.256232,5.25627106 C4.91453725,5.5979658 4.91453725,6.15229006 5.256232,6.49398481 L10.7627238,12.0004766 L5.256232,17.5065308 C4.91453725,17.8482256 4.91453725,18.4025498 5.256232,18.7442446 C5.42686062,18.9148732 5.65086537,19.000625 5.87487012,19.000625 C6.09887487,19.000625 6.32287962,18.9148732 6.49350823,18.7442446 L12,13.2377528 L17.5064918,18.7442446 C17.6771204,18.9148732 17.9011251,19.000625 18.1251299,19.000625 C18.3491346,19.000625 18.5731394,18.9148732 18.743768,18.7442446 C19.0854627,18.4025498 19.0854627,17.8482256 18.743768,17.5065308 L13.2377137,12.0004766 L18.743768,6.49398481 Z" id="Icon-/-Close" fill="#505763"></path>
            </g>
        </g>
    </g>
</svg>